<svg xmlns="http://www.w3.org/2000/svg" viewBox="0 0 120 120" fill="none">
  <circle cx="60" cy="60" r="58" fill="#ffdd00" stroke="#e5c400" stroke-width="2"/>
  <path d="M35 48h40c1.1 0 2 .9 2 2v28c0 6.6-5.4 12-12 12H45c-6.6 0-12-5.4-12-12V50c0-1.1.9-2 2-2z" fill="#fff" stroke="#4a3728" stroke-width="3"/>
  <path d="M77 54h6c4.4 0 8 3.6 8 8s-3.6 8-8 8h-6" stroke="#4a3728" stroke-width="3" stroke-linecap="round"/>
  <path d="M45 38c0-4 3-6 3-10" stroke="#4a3728" stroke-width="2.5" stroke-linecap="round" fill="none" opacity="0.6"/>
  <path d="M55 36c0-4 3-6 3-10" stroke="#4a3728" stroke-width="2.5" stroke-linecap="round" fill="none" opacity="0.6"/>
  <path d="M65 38c0-4 3-6 3-10" stroke="#4a3728" stroke-width="2.5" stroke-linecap="round" fill="none" opacity="0.6"/>
</svg>
