<svg xmlns="http://www.w3.org/2000/svg" width="100" height="100"><g fill="#26A450"><path d="M88.7 51c0 21.649-17.551 39.2-39.2 39.2S10.3 72.649 10.3 51s17.551-39.2 39.2-39.2c21.6-.1 39.2 17.5 39.2 39.2zM49.4 86.1a34.99 34.99 0 0 0 21.7-7.5c0-.1-.1-1.5.601-1.699.399-1.301.399-4 .5-6.301 0-2.3-.4-5.5-.9-7.6-1-1.5-2.3-1-3.3-.2-.5.4-2.3 1.9-3.3 2.7-.101.8-.3 1.6-1 2.2-.7.6-1.2.399-1.5.5-.2.3-.4.6-.9.5-.399 0-.8-.5-1.2-.7-.399-.1-.8-.2-.899-.3-.2-.2-.5-1.5-.7-2.101-.1-.3-.5-.5-.7-.8-.3-.3-.3-1.1-.3-1.6-.1-.4-.2-.601-.2-1.4s.5-3.1.2-3.5c-.1-.2-2.1-1-2-1.899.2-1 2.3-2 4.8-2.601.8-.899 4.8-4.3 7.7-6.4s6.7-4.2 9.8-5.1c1.9-.5 3.7-.8 5.5-.5-4-15-17.7-26.1-34-26.1a34.998 34.998 0 0 0-28.5 14.6C29.3 36 36.7 39.7 38.9 41c2.1-1.3 5.3-2.5 9.2-3.8.2 2.3-.6 5-3.1 9 1.2 2.2 1.4 5.7.1 11.5.9 2.4 2.9 8.3 3.8 10.7-.1 2.7-1.8 3.7-3.9 2.7-2.5-.399-4.4-.6-5.6-.8-2.8-2.2-5.4-6.399-9.3-13.2-3.5-2-9-4.1-15.6-2.8 1.665 18.028 16.796 31.815 34.9 31.8zM6.3 48.3l.4-4c0-.2 0-.5-.1-.6-.1-.2-.2-.3-.3-.5-.2-.2-.3-.3-.5-.3-.2-.1-.4-.1-.6-.1h-.7c-.2 0-.3.1-.5.2-.1.1-.3.2-.4.4l-.3.6-.9 2.3c-.1.1-.1.2-.2.3l-.2.2c-.1 0-.1 0-.2.1h-.2c-.2 0-.3-.1-.4-.1-.1-.1-.2-.1-.2-.2s-.1-.2 0-.3l.3-3.4-1-.1-.3 3.5c0 .3 0 .6.1.8.1.2.3.4.5.5.2.1.5.2.8.2h.8c.2 0 .4-.1.6-.3.2 0 .3-.2.4-.5l1-2.5c.1-.1.1-.2.2-.3l.2-.2h.6c.1 0 .2 0 .2.1.1 0 .1.1.2.2 0 .1.1.2 0 .3l-.3 3.6 1 .1zm1.9-11.4l-.9-.2-.5 2.1c-.1.4-.2.7-.3.9-.2.3-.3.4-.5.5-.2.1-.5.2-.8.2-.3 0-.7 0-1.1-.1-.4-.1-.8-.2-1-.3-.3-.1-.5-.3-.6-.5s-.2-.4-.2-.7c0-.3 0-.6.1-1l.5-2-.9-.2-.6 2.5c-.1.4-.1.8-.1 1.1 0 .3.1.6.3.9.1.2.3.5.6.6.2.2.5.3.8.4s.6.2 1 .3.7.1 1 .2h.9c.3-.1.5-.2.8-.3.2-.2.4-.4.6-.7.2-.3.3-.6.4-1.1l.5-2.6zm-3.5-8.5l-.5 1.1 2.4 1-1.3 3.1-2.4-1-.5 1.1 6 2.4.5-1.1-2.6-1 1.3-3.1 2.6 1.1.5-1.1-6-2.5zm7.1.4L7.6 26c-.1-.1-.2-.1-.2-.2s-.1-.1 0-.2c0-.1.1-.2.1-.3l1.1-1.6c.1-.2.2-.3.3-.4.1-.1.2-.1.3-.1.1 0 .2 0 .4.1.1.1.3.1.4.2.2.1.3.2.4.3l.3.3c.1.1.1.2.1.3s-.1.2-.2.4l-.7 1c-.1.2-.1.3-.1.4 0 .1.1.2.2.3l.1.1c.1 0 .1.1.2.1h.4l2.9-.6.9-1.3-3.1.7.4-.5c.2-.3.3-.6.2-.9 0-.3-.1-.5-.4-.8-.2-.3-.5-.5-.9-.7-.4-.2-.7-.4-1-.5-.4-.1-.7-.1-1 0-.3.1-.5.3-.7.7l-1.8 2.7c-.1.2-.2.3-.2.5 0 .1 0 .3.1.4s.2.3.4.4l4.6 3 .7-1zm.1-11.3c-.3.4-.6.7-.8 1-.2.3-.3.6-.4.9-.1.3 0 .6 0 .9.1.3.2.6.5.9.2.3.5.6.9 1 .4.3.8.6 1.1.8.3.2.7.3.9.3.3 0 .6 0 .9-.1.3-.1.6-.3.9-.5.3-.2.6-.5.9-.9.3-.4.6-.7.8-1 .2-.3.3-.6.4-.9.1-.3 0-.6 0-.9-.1-.3-.2-.6-.5-.9-.2-.3-.5-.6-.9-1-.4-.3-.8-.6-1.1-.8-.3-.2-.6-.3-.9-.3-.3 0-.6 0-.9.1-.3.1-.6.3-.9.5-.3.2-.6.5-.9.9zm1.1 3.7l-.8-.8c-.2-.2-.3-.5-.3-.7 0-.2 0-.5.1-.7s.3-.5.6-.8l.7-.7c.2-.2.5-.2.7-.2s.5.1.8.2c.3.1.6.4.9.7l.8.8c.2.3.3.5.3.7 0 .2 0 .5-.1.7-.1.2-.3.5-.6.8l-.7.7c-.2.2-.5.2-.7.2-.2 0-.5-.1-.8-.2-.2-.2-.6-.4-.9-.7zm7.2-11.5l-.9.8 3.1 3.6v.2h-.2l-4.9-1.5c-.1 0-.2-.1-.3-.1s-.2 0-.4.1c-.1 0-.3.1-.4.3-.2.2-.4.4-.4.6 0 .2 0 .4.2.7l3.6 4.3.9-.8-3-3.6c0-.1-.1-.1-.1-.1v-.1h.3l4.8 1.5c.2.1.3.1.5.1.1 0 .3 0 .4-.1s.2-.1.3-.2c.1-.1.2-.2.3-.4.1-.1.1-.3.1-.4 0-.2-.1-.3-.2-.5l-3.7-4.4zm6.1 3.7l-3.4-5.5-1 .6 3.4 5.5 1-.6zm.7-.6l3.6-1.8c.2-.1.4-.2.5-.4.1-.2.2-.3.2-.5v-.6c0-.2-.1-.4-.2-.6-.1-.2-.2-.4-.4-.5-.1-.1-.3-.2-.4-.3-.2-.1-.3-.1-.5-.1s-.4 0-.7.1l-2.4.4h-.3c-.1 0-.2 0-.2-.1-.1 0-.1-.1-.2-.1 0-.1-.1-.1-.1-.2-.1-.1-.1-.3-.1-.4 0-.1 0-.2.1-.3l.2-.2 3-1.5-.4-.9-3.3 1.7c-.4.1-.6.3-.7.5-.1.2-.2.4-.2.7 0 .3.1.5.2.8.1.3.3.5.4.6.2.2.3.3.6.3.2.1.5.1.8 0l2.6-.4h.4c.1 0 .2 0 .3.1.1 0 .1.1.2.1 0 .1.1.1.1.2 0 0 .1.1.1.2v.2c0 .1 0 .2-.1.3 0 .1-.1.2-.3.2l-3.2 1.6.4.9zM38.5 8l-3.7-1.7c-.1 0-.1-.1-.2-.1s-.1-.1-.2-.1c-.1-.1-.1-.1-.1-.2v-.2c0-.1 0-.1.1-.2 0-.1.1-.1.1-.2L36.2 2l-1.4.5-1.6 3c0 .1-.1.2-.1.2v.6c0 .1.1.2.1.3s.1.2.2.2c.1.1.2.1.3.2L37 8.5l1.5-.5zm-5.8 1.9l1.2-.4-2-6.1-1.2.4 2 6.1zm7.7-9c-.5.1-.9.2-1.2.3-.3.1-.6.3-.9.5-.2.2-.4.4-.5.7-.1.3-.2.6-.2 1s0 .8.1 1.3.2.9.3 1.3.3.6.5.9c.2.2.4.4.7.5.3.1.6.2 1 .2s.8 0 1.3-.1.9-.2 1.2-.3c.3-.1.6-.3.9-.5.2-.2.4-.4.5-.7s.2-.6.2-1 0-.8-.1-1.3-.2-.9-.3-1.3-.3-.6-.5-.9c-.2-.2-.4-.4-.7-.5-.3-.1-.6-.1-1-.1-.4-.1-.8-.1-1.3 0zM39 4.5c-.1-.5-.1-.8-.1-1.1 0-.3.1-.6.2-.8.1-.2.3-.4.6-.5.2-.1.6-.2 1-.3.4-.1.7-.1 1-.1.3 0 .5.1.7.3.2.1.3.4.5.6-.1.4 0 .8.1 1.2.1.4.1.8.1 1.1 0 .3-.1.6-.2.8-.1.2-.3.4-.6.5-.2.1-.6.2-1 .3-.4.1-.7.1-1 .1a.905.905 0 0 1-.7-.3c-.2-.1-.3-.4-.5-.6 0-.4-.1-.7-.1-1.2zm12.5 2c.4 0 .7-.1 1-.2.3-.1.5-.3.7-.5.2-.2.3-.4.399-.7.101-.3.2-.6.2-.9 0-.3.101-.6.101-.9v-.9c0-.3-.101-.6-.2-.9-.1-.3-.2-.5-.4-.7-.2-.2-.399-.4-.7-.5-.3-.1-.699-.2-1.1-.2H49c-.2 0-.3 0-.5.1-.1.1-.3.2-.3.3-.2 0-.2.2-.2.5l-.1 4.5c0 .2 0 .4.1.6l.3.3c.1.1.3.1.5.1h2.7zM51 1c.3 0 .5 0 .7.1s.399.2.5.3c.1.1.2.3.3.5.1.2.1.4.1.6v1.4c0 .2-.1.4-.199.6-.101.2-.201.3-.301.5-.1.1-.3.2-.5.3-.2.1-.5.1-.7.1h-1.6c-.1 0-.1-.1-.1-.1V5l.1-3.6v-.3c0-.1.1-.1.1-.1H51zm8.8 6.6l.2-1-3.4-.6c-.1 0-.199 0-.3-.1-.1 0-.1-.1-.1-.2v-.3l.9-4.9-1.2-.2-1 5.4v.6c.1.2.1.3.3.4.1.1.3.1.5.2l4.1.7zm.3 0l1.3.4 1.1-1.3 2.9 1 .1 1.8 1.2.4-.5-6.3c0-.2-.101-.4-.101-.5C66 3 66 2.9 65.9 2.8c-.1-.1-.3-.2-.4-.2-.2-.1-.3-.1-.5-.1-.1 0-.3 0-.4.1-.1.1-.2.2-.4.3l-4.1 4.7zm4.8-3.9c.1-.1.1-.1.1-.2h.1l.1.1v.2l.2 2.8-2.4-.7 1.9-2.2zm8.5 9.7l.5-.8-3.3-1.8-.1-.1v-.1s0-.1.1-.1h.1l4.9-1.6c.101 0 .2-.1.301-.1.099 0 .199-.1.199-.1.1-.1.1-.2.2-.3.1-.2.1-.3.1-.4s-.1-.2-.1-.3c-.1-.1-.2-.2-.3-.2l-4-2.2-.5.7 3.1 1.7s.101 0 .101.1v.1s0 .1-.101.1h-.1l-4.8 1.5c-.101 0-.2.1-.3.1-.101 0-.2.1-.301.2-.099.1-.199.2-.199.3-.1.1-.1.3-.1.4s0 .2.101.3c.099.1.099.2.199.2.101.1.2.1.2.1l4.1 2.3zm3.3.6h-.2V13.7l2-4.7-1-.8-2.2 5.4c-.1.1-.1.2-.1.4v.3c0 .1 0 .2.1.3l.3.3c.1.1.3.2.4.2h.3c.101 0 .2-.1.3-.1.101-.1.2-.1.301-.2l3.5-2.6c.1 0 .1-.1.1-.1h.1v.2l-1.699 4c0 .1-.101.2-.101.3v.3c0 .1.101.2.101.3l.3.3c.1.1.3.2.399.2h.299c.1 0 .199-.1.3-.1.101-.1.2-.1.3-.2l4.7-3.5-1-.8-4.1 3.1H79.8V16l1.8-4.2c0-.1.101-.1.101-.2v-.3c0-.1 0-.2-.101-.3-.1-.1-.1-.2-.3-.3-.1-.1-.3-.2-.399-.2H80.6c-.1 0-.199 0-.199.1-.101 0-.101.1-.2.1L76.7 14zm5.6 6.8l4.601-4.5-.801-.9-4.7 4.6.9.8zm4.7 4.4l-2.2-2.7c-.1-.1-.1-.2-.1-.2v-.2c0-.1.1-.1.2-.2L86 21l2.4 3 .8-.6-2.4-3 1-.8c.101-.1.2-.1.2-.1h.2c.1 0 .1.1.2.2l2.199 2.7.801-.6-2.6-3.3c-.1-.1-.2-.3-.399-.3-.301-.2-.501-.2-.601-.2-.2 0-.3.1-.5.3l-3.5 2.8c-.2.2-.3.3-.399.5-.101.1-.101.3 0 .4 0 .1.1.3.199.4l2.7 3.3.7-.5zm.2 2.3l4.3-2.5c.1-.1.2-.1.3-.1.101 0 .101 0 .2.1.1 0 .1.1.2.2l1 1.7c.1.2.2.3.2.4v.3c0 .1-.101.2-.2.3-.1.1-.2.2-.4.3-.2.1-.3.2-.399.2-.101.1-.301.1-.401.1s-.2 0-.3-.1l-.3-.3-.6-1.1c-.1-.2-.2-.3-.3-.3h-.3l-.1.1c-.1 0-.1.1-.1.1 0 .1-.1.1-.1.2s-.1.1-.1.2l-.8 2.8.8 1.4.8-3.1.3.6c.199.3.399.5.699.6.301.1.601.1.9 0s.7-.2 1.1-.4c.4-.2.7-.4.9-.7.2-.2.3-.5.3-.8 0-.3-.1-.6-.3-.9L92.9 24c-.101-.2-.2-.3-.301-.4-.1-.1-.3-.1-.399-.1-.2 0-.3.1-.601.2L86.9 26.4l.3 1.1zm4.5 9.6l.899-.4-1.399-3.5v-.1l.1-.1h.2l4.8 1.9c.101 0 .2.1.3.1h.3c.1 0 .199 0 .3-.1.2-.1.3-.2.3-.3.1-.1.1-.2.1-.3 0-.1 0-.2-.1-.3l-1.7-4.3-.9.4 1.3 3.3v.2H96l-4.7-1.9c-.1 0-.2-.1-.3-.1h-.3c-.101 0-.2 0-.4.1-.1.1-.2.1-.3.2s-.1.2-.1.3v.3c0 .1.1.2.1.2l1.7 4.4zm-.1 7.2l.5-.1-.1-.4v-.2l.1-.1h.2l.9.2 5.1-3.7c.2-.1.3-.2.4-.3.1-.1.1-.2.1-.4v-.5c0-.2-.1-.3-.2-.5l-.3-.3c-.1-.1-.3-.1-.5-.1l-6.2-1.1.3 1.2 1.699.3.7 3-1.399 1 .1.5-.9-.2h-.4c-.101 0-.2.1-.3.1-.1.1-.1.1-.1.2v.3l.3 1.1zm5.7-5.2h.2s.1 0 .1.1v.1l-.1.1-.1.1-2.3 1.6-.6-2.4 2.8.4zm-3.9 8.2l5.5-.5.199 2.5 1-.1L99.5 43l-1 .1.2 2.5-5.5.5.2 1.2zM24.3 91.2s-.1 0-.1.1h-.1V91l1.5-4.9-1.1-.6-1.5 5.6c0 .101-.1.2-.1.4v.3c0 .101.1.2.2.3.1.101.2.2.4.301.2.1.3.199.4.199h.3c.1 0 .2-.1.3-.1.1-.1.2-.1.3-.2l3.1-3 .1-.1h.1v.2l-1.2 4.2c0 .101-.1.2-.1.301v.3c0 .1.1.2.2.3s.2.2.4.3c.2.101.3.2.4.2h.3c.1 0 .2-.1.3-.2.1-.1.2-.2.3-.2l4.2-4L31.8 90l-3.7 3.6-.1.1h-.2v-.2l1.2-4.4v-.5c0-.1-.1-.199-.1-.3.1-.2 0-.3-.2-.3-.1-.1-.3-.1-.4-.2H28c-.1 0-.2.101-.2.101-.1 0-.1.1-.2.1L24.3 91.2zm8 5.6l1.2.4.7-2.2 2.8.9c.3.1.6.1.9.1.2 0 .4-.1.6-.3.2-.101.3-.3.4-.601.1-.199.2-.5.3-.699.1-.301.1-.5.2-.801V92.9l-.3-.6c-.2-.2-.4-.3-.7-.399l-3-1c-.2-.101-.3-.101-.5-.101s-.3.101-.4.2-.2.3-.3.5l-1.9 5.3zm2.1-2.8l.5-1.7c0-.1.1-.2.1-.3s.1-.1.2-.1.2 0 .3.1l1.8.6c.2.101.3.101.5.2.1.1.2.2.2.3v.4c0 .1-.1.3-.1.5-.1.2-.1.3-.2.5-.1.1-.2.2-.2.3-.1.1-.2.1-.4.1-.1 0-.3 0-.5-.101L34.4 94zm8.4-1.2c-.5-.1-.9-.1-1.3-.1s-.7 0-1 .1c-.3.101-.5.3-.7.5-.2.2-.4.5-.5.9-.1.4-.3.8-.4 1.3s-.1 1-.1 1.3c0 .4.1.7.2 1s.3.5.5.7.5.4.9.5c.3.1.8.2 1.2.3.5.101.9.101 1.3.2.4 0 .7 0 1-.1.3-.101.5-.301.7-.5.2-.2.4-.5.5-.9s.3-.8.4-1.3.1-1 .1-1.3c0-.4-.1-.7-.2-1-.1-.301-.3-.5-.5-.7-.2-.2-.5-.4-.9-.5-.3-.2-.7-.3-1.2-.4zm-2.6 2.9c.1-.5.2-.8.3-1.101.1-.3.3-.5.5-.6s.4-.2.7-.2c.3 0 .6 0 1 .101.4.1.7.199 1 .3.2.1.4.3.6.5.1.2.2.5.2.8s0 .7-.1 1.1c-.1.4-.2.8-.3 1.1s-.3.5-.5.6c-.2.101-.4.2-.7.2-.3 0-.6 0-1-.1s-.7-.2-.9-.3c-.2-.1-.4-.3-.5-.5-.1-.199-.2-.5-.2-.8-.2-.3-.2-.7-.1-1.1zm10.6 4.3v-1l-3.8-.1h-.1v-.2l.1-.1 3.7-3.6.2-.2c.1-.1.1-.1.1-.2s.1-.199.1-.3c0-.2 0-.3-.1-.399-.1-.101-.2-.2-.3-.2-.101 0-.2-.101-.3-.101l-4.6-.2v1l3.6.1h.1l.1.1v.1s0 .1-.1.1l-3.6 3.5-.2.2c-.1.1-.1.2-.2.3 0 .101-.1.2-.1.4s0 .3.1.399c.1.101.1.2.2.2s.2.101.3.101h.3l4.5.1zm6.4-7l-1.2.1.4 4.7v.2h-.2s0-.1-.101-.1L53 93.8c-.1-.1-.1-.2-.2-.2-.1-.1-.2-.1-.3-.199H52c-.3 0-.5.1-.7.3s-.2.399-.2.7l.5 5.6 1.2-.1-.4-4.701v-.1h.1l.1.101 3.101 4 .3.3c.1.1.2.1.4.1h.399c.2 0 .3-.1.5-.1l.3-.3c.1-.101.1-.301.1-.501l-.5-5.7zm1 6.4l1.2-.301.3-1.699 3-.7 1 1.399 1.2-.3-3.7-5.1c-.101-.2-.2-.3-.3-.4-.101-.1-.2-.1-.4-.1H60c-.2 0-.3.1-.5.2l-.3.3c-.1.101-.1.301-.1.501l-.9 6.2zm2-5.7v-.2s0-.1.1-.1h.1l.1.1.1.1 1.6 2.3-2.4.6.4-2.8zm8.4-4.4l-1.1.4 1.8 4.399v.2l-.1.101h-.1s-.1 0-.1-.101l-4.2-3c-.1-.1-.2-.1-.3-.2-.1 0-.2-.1-.4 0-.1 0-.3 0-.5.101-.3.1-.5.3-.6.5s-.1.399 0 .7l2.1 5.199 1.1-.399-1.8-4.4v-.2s0-.1.1-.1h.1s.101 0 .101.1l4.1 3c.101.101.3.2.4.2h.399c.101 0 .2-.1.4-.1.2-.101.3-.2.4-.3.1-.1.2-.2.2-.4s0-.3-.1-.5l-1.9-5.2zm4.5 4.9l-2.9-5.7-1.1.5 2.9 5.7 1.1-.5zm2.9-2.7c-.3.2-.6.3-.8.4-.2 0-.5 0-.7-.101-.2-.1-.4-.3-.6-.6l-2.2-3.4-1 .7 2.2 3.4c.3.399.5.699.8.899s.6.3.899.3c.301 0 .601 0 1-.1.301-.1.7-.3 1-.5.4-.2.7-.5.9-.7.2-.3.4-.5.5-.8s.1-.6.1-.9C78 89.8 77.9 89.4 77.6 89l-2.2-3.4-1 .7 2.199 3.4c.2.3.301.5.301.8 0 .2 0 .5-.2.7-.2-.1-.4.1-.7.3z"/></g></svg>